<svg xmlns="http://www.w3.org/2000/svg" viewBox="0 0 512 512" style="height: 512px; width: 512px;"><path d="M0 0h512v512H0z" fill="#000" fill-opacity="1"></path><g class="" transform="translate(0,0)" style=""><path d="M74.5 36A38.5 38.5 0 0 0 36 74.5v363A38.5 38.5 0 0 0 74.5 476h363a38.5 38.5 0 0 0 38.5-38.5v-363A38.5 38.5 0 0 0 437.5 36h-363zM256 206a50 50 0 0 1 0 100 50 50 0 0 1 0-100z" fill="#fff" fill-opacity="1"></path></g><g class="" transform="translate(131,125)" style=""><g><circle cx="128" cy="128" r="128" fill="#000000" fill-opacity="1"></circle><circle stroke="#fff" stroke-opacity="1" fill="#000000" fill-opacity="1" stroke-width="18" cx="128" cy="128" r="101"></circle><path fill="#fff" fill-opacity="1" d="M118.3 168.3h55.6v24H82.08v-24l46.12-40.7q6.2-5.5 9.1-10.9 3-5.3 3-11.1 0-8.85-6-14.27-5.9-5.42-15.8-5.42-7.6 0-16.7 3.3-9.06 3.22-19.38 9.65V71.1q11-3.64 21.78-5.5 10.7-1.95 21-1.95 22.7 0 35.3 9.99 12.6 9.99 12.6 27.86 0 10.3-5.4 19.3-5.3 8.9-22.4 23.9z"></path></g></g></svg>