<svg xmlns="http://www.w3.org/2000/svg" viewBox="0 0 512 512" style="height: 512px; width: 512px;"><path d="M0 0h512v512H0z" fill="#000" fill-opacity="1"></path><g class="" transform="translate(0,0)" style=""><path d="M74.5 36A38.5 38.5 0 0 0 36 74.5v363A38.5 38.5 0 0 0 74.5 476h363a38.5 38.5 0 0 0 38.5-38.5v-363A38.5 38.5 0 0 0 437.5 36h-363zM256 206a50 50 0 0 1 0 100 50 50 0 0 1 0-100z" fill="#fff" fill-opacity="1"></path></g><g class="" transform="translate(131,125)" style=""><g><circle cx="128" cy="128" r="128" fill="#000000" fill-opacity="1"></circle><circle stroke="#fff" stroke-opacity="1" fill="#000000" fill-opacity="1" stroke-width="18" cx="128" cy="128" r="101"></circle><path fill="#fff" fill-opacity="1" d="M149.5 123q12.8 3.3 19.4 11.5 6.7 8.1 6.7 20.7 0 18.8-14.4 28.6t-42 9.8q-9.7 0-19.51-1.7-9.73-1.5-19.29-4.6v-25.1q9.14 4.5 18.11 6.9 9.09 2.3 17.79 2.3 12.9 0 19.8-4.5T143 154q0-8.6-7.1-13-7-4.5-20.8-4.5h-13v-21h13.7q12.2 0 18.3-3.8 6-3.9 6-11.75 0-7.28-5.9-11.26-5.8-3.98-16.5-3.98-7.9 0-15.9 1.78-8.03 1.78-15.99 5.25V67.87q9.65-2.71 19.09-4.06 9.5-1.36 18.7-1.36 24.6 0 36.8 8.13 12.2 8.04 12.2 24.29 0 11.13-5.8 18.23-5.8 7-17.3 9.9z"></path></g></g></svg>