<svg xmlns="http://www.w3.org/2000/svg" viewBox="0 0 512 512" style="height: 512px; width: 512px;"><path d="M0 0h512v512H0z" fill="#000" fill-opacity="1"></path><g class="" transform="translate(0,0)" style=""><path d="M74.5 36A38.5 38.5 0 0 0 36 74.5v363A38.5 38.5 0 0 0 74.5 476h363a38.5 38.5 0 0 0 38.5-38.5v-363A38.5 38.5 0 0 0 437.5 36h-363zM256 206a50 50 0 0 1 0 100 50 50 0 0 1 0-100z" fill="#fff" fill-opacity="1"></path></g><g class="" transform="translate(131,125)" style=""><g><circle cx="128" cy="128" r="128" fill="#000000" fill-opacity="1"></circle><circle stroke="#fff" stroke-opacity="1" fill="#000000" fill-opacity="1" stroke-width="18" cx="128" cy="128" r="101"></circle><path fill="#fff" fill-opacity="1" d="M131.6 91.67L95.88 144.6h35.72zm-5.4-26.83h36.2v79.76h18v23.6h-18v23h-30.8v-23H75.57v-28z"></path></g></g></svg>