<svg xmlns="http://www.w3.org/2000/svg" viewBox="0 0 512 512" style="height: 512px; width: 512px;"><path d="M0 0h512v512H0z" fill="#000" fill-opacity="1"></path><g class="" transform="translate(0,0)" style=""><path d="M74.5 36A38.5 38.5 0 0 0 36 74.5v363A38.5 38.5 0 0 0 74.5 476h363a38.5 38.5 0 0 0 38.5-38.5v-363A38.5 38.5 0 0 0 437.5 36h-363zM256 206a50 50 0 0 1 0 100 50 50 0 0 1 0-100z" fill="#fff" fill-opacity="1"></path></g><g class="" transform="translate(131,125)" style=""><g><circle cx="128" cy="128" r="128" fill="#000000" fill-opacity="1"></circle><circle stroke="#fff" stroke-opacity="1" fill="#000000" fill-opacity="1" stroke-width="18" cx="128" cy="128" r="101"></circle><path fill="#fff" fill-opacity="1" d="M85.43 63.64h80.97v23.95h-55v19.51q3.7-1 7.5-1.5 3.8-.6 7.8-.6 23.1 0 36 11.6 12.9 11.5 12.9 32.2 0 20.5-14.1 32.1-14 11.6-38.8 11.6-10.8 0-21.4-2.2-10.46-2-20.87-6.2v-25.7q10.33 6 19.55 8.9 9.32 3 17.52 3 11.9 0 18.6-5.8 6.9-5.8 6.9-15.7 0-10-6.9-15.8-6.7-5.7-18.6-5.7-7 0-15 1.8-7.93 1.8-17.07 5.6z"></path></g></g></svg>