<svg xmlns="http://www.w3.org/2000/svg" viewBox="0 0 512 512" style="height: 512px; width: 512px;"><path d="M0 0h512v512H0z" fill="#000" fill-opacity="1"></path><g class="" transform="translate(0,0)" style=""><path d="M74.5 36A38.5 38.5 0 0 0 36 74.5v363A38.5 38.5 0 0 0 74.5 476h363a38.5 38.5 0 0 0 38.5-38.5v-363A38.5 38.5 0 0 0 437.5 36h-363zM256 206a50 50 0 0 1 0 100 50 50 0 0 1 0-100z" fill="#fff" fill-opacity="1"></path></g><g class="" transform="translate(131,125)" style=""><g><circle cx="128" cy="128" r="128" fill="#000000" fill-opacity="1"></circle><circle stroke="#fff" stroke-opacity="1" fill="#000000" fill-opacity="1" stroke-width="18" cx="128" cy="128" r="101"></circle><path fill="#fff" fill-opacity="1" d="M129.7 128.6q-8.6 0-12.9 5.6-4.2 5.5-4.2 16.6 0 11.1 4.2 16.7 4.3 5.5 12.9 5.5 8.6 0 12.9-5.5 4.3-5.6 4.3-16.7t-4.3-16.6q-4.3-5.6-12.9-5.6zM170 67.94V91.3q-8.1-3.81-15.2-5.59-7.1-1.86-13.8-1.86-14.6 0-22.7 8.13-8.2 8.02-9.5 23.92 5.6-4.1 12.1-6.1 6.5-2.2 14.2-2.2 19.4 0 31.2 11.4 12 11.3 12 29.7 0 20.3-13.3 32.6-13.3 12.2-35.6 12.2-24.7 0-38.21-16.6-13.46-16.7-13.46-47.3 0-31.28 15.74-49.13 15.83-17.95 43.33-17.95 8.7 0 16.9 1.36 8.2 1.35 16.3 4.06z"></path></g></g></svg>